<svg id="Isolation_Mode" xmlns="http://www.w3.org/2000/svg" viewBox="0 0 884.6 285.4"><style>.st0{fill:#ffa21a}.st1{fill:#fff}</style><path class="st0" d="M601.6 148.3H489.3c-4.8 0-8.6 3.9-8.6 8.6v25.9c0 4.8 3.9 8.6 8.6 8.6h34.6v77.8c0 4.8 3.9 8.6 8.6 8.6h25.9c4.8 0 8.6-3.9 8.6-8.6v-77.8h34.6c4.8 0 8.6-3.9 8.6-8.6v-25.9c.1-4.7-3.8-8.6-8.6-8.6m-425.2 0H85.7c-4.8 0-8.6 3.9-8.6 8.6v112.3c0 4.8 3.9 8.6 8.6 8.6h25.9c4.8 0 8.6-3.9 8.6-8.6v-34.6h34.6c4.8 0 8.6-3.9 8.6-8.6v-25.9c0-4.8-3.9-8.6-8.6-8.6h21.6c4.8 0 8.6-3.9 8.6-8.6V157c0-4.8-3.8-8.7-8.6-8.7m146.8 34.6V157c0-4.8-3.9-8.6-8.6-8.6h-90.7c-.9 0-1.8.1-2.6.4-3.5 1.1-6.1 4.4-6.1 8.3v112.3c0 3.9 2.6 7.2 6.1 8.3.8.3 1.7.4 2.6.4h90.7c4.8 0 8.6-3.9 8.6-8.6v-25.9c0-4.8-3.9-8.6-8.6-8.6H293c4.8 0 8.6-3.9 8.6-8.6v-25.9c0-4.8-3.9-8.6-8.6-8.6h21.6c4.7-.4 8.6-4.3 8.6-9m127.3 0V157c0-4.8-3.9-8.6-8.6-8.6h-56.2c-21.8 0-39.9 16.2-42.8 37.2-.3 2-.4 3.9-.4 6 0 2 .1 4 .4 5.9 2.9 21 20.9 37.2 42.8 37.2H360c-4.8 0-8.6 3.9-8.6 8.6v25.9c0 4.8 3.9 8.6 8.6 8.6h68.9c21.8 0 39.9-16.2 42.8-37.2.3-2 .4-3.9.4-6 0-2-.1-4-.4-5.9-2.9-21-20.9-37.2-42.8-37.2h12.9c4.9 0 8.7-3.9 8.7-8.6"/><path class="st1" d="M391.8 83c.1.3.2.7.4 1 0-.1-.1-.2-.1-.4-.1-.1-.2-.4-.3-.6m-.4-1.6c.1.3.1.5.2.8 0-.1-.1-.2-.1-.3 0-.2-.1-.3-.1-.5zm27.2-25.7h.1l.9.3c-.3-.1-.7-.2-1-.3zm-1-.2c.1 0 .2 0 .3.1 0-.1-.1-.1-.3-.1zm30.7 30.2c-3.1-3.7-8.5-4.1-12.2-1.1l-8.7 7.3-1.2 1c-7.2 6.1-17.3 6.6-24.9 2l-.9-.6c-.6-.4-1.2-.9-1.8-1.4-1.6-1.3-3-2.9-4.1-4.5l-.6-.9c-.3-.5-.5-1-.8-1.5-.2-.5-.4-1-.6-1.4-.5-1.3-.9-2.7-1.2-4.1-.1-.5-.2-.9-.2-1.4v-.3c-.1-.7-.1-1.5-.1-2.2V76c0-.7.1-1.4.1-2.2.1-.4.1-.9.2-1.3l.3-1.5c.1-.3.2-.5.2-.8.1-.3.2-.6.3-1 .1-.2.1-.3.2-.5.1-.4.3-.8.5-1.1.2-.4.4-.9.6-1.3.1-.1.1-.2.2-.3.2-.3.4-.7.6-1 .1-.2.3-.4.4-.7.1-.2.3-.4.4-.6.3-.4.6-.8 1-1.3s.8-.9 1.2-1.3l.3-.3c.3-.3.6-.6 1-.9.1-.1.3-.2.4-.3.3-.3.6-.5 1-.8.2-.1.3-.2.5-.3.3-.2.7-.4 1-.6.1-.1.2-.1.4-.2.5-.3 1.1-.6 1.7-.9.1 0 .1-.1.2-.1.4-.2.8-.3 1.2-.5.1 0 .1-.1.2-.1.4-.1.8-.3 1.2-.4.1 0 .1 0 .2-.1 2.6-.8 5.3-1.1 8-.9h.3c.4 0 .8.1 1.1.1.3 0 .5.1.8.1.2 0 .3.1.5.1l1.2.3h.1c.1 0 .2 0 .2.1.4.1.9.3 1.3.4h.1c.5.2 1.1.4 1.6.7.6.2 1.1.5 1.7.9.3.2.5.3.8.5.3.2.5.4.8.5l1.2.9s.1 0 .1.1l.6.5s.1 0 .1.1c.1.1.2.1.2.2l.3.3.3.3.6.6-.9-.9 9 7.5c3.7 3.1 9.1 2.6 12.2-1.1L465 47.3c1.4-1.6 2-3.6 2-5.6 0-2.4-1.1-4.8-3.1-6.5l-9.1-7.7-2-1.7-.1-.1c-4.8-3.8-10-6.9-15.5-9.1-21.6-9-47.4-5.9-66.5 10.2-27.4 23-31 63.9-8 91.3 18.6 22.2 49 28.8 74.4 18.2 6-2.5 11.6-5.9 16.8-10.2l9.9-8.3c2-1.7 3-4.1 3.1-6.5 0-2-.6-4-2-5.7l-16.6-19.9zm-110.9 32.2L290 16.1c0-.1-.1-.1-.1-.2-.1-.2-.2-.3-.2-.5-.1-.1-.1-.2-.2-.3-.1-.1-.2-.2-.2-.4-.1-.1-.2-.2-.3-.4-.1-.1-.2-.2-.2-.3-.1-.1-.2-.2-.3-.4l-.2-.2c-.1-.1-.2-.2-.4-.3-.1-.1-.2-.2-.3-.2-.1-.1-.2-.2-.4-.3-.1-.1-.2-.2-.3-.2-.1-.1-.2-.1-.3-.2-.1-.1-.3-.1-.4-.2-.1-.1-.2-.1-.3-.2-.1-.1-.3-.1-.5-.2-.1 0-.2-.1-.3-.1-.2-.1-.3-.1-.5-.1-.1 0-.2-.1-.4-.1-.1 0-.3-.1-.4-.1-.1 0-.3 0-.4-.1h-28.1c-.1 0-.3 0-.4.1-.1 0-.3.1-.4.1-.1 0-.2.1-.4.1s-.3.1-.5.1c-.1 0-.2.1-.3.1-.2.1-.3.1-.5.2-.1 0-.2.1-.3.2-.1.1-.3.1-.4.2-.1.1-.2.1-.3.2-.1.1-.2.1-.3.2-.1.1-.2.2-.4.3-.1.1-.2.1-.3.2-.1.1-.2.2-.4.3l-.2.2c-.1.1-.2.2-.3.4-.1.1-.2.2-.2.3-.1.1-.2.2-.3.4-.1.1-.2.2-.2.4-.1.1-.1.2-.2.3-.1.2-.2.3-.2.5 0 .1-.1.1-.1.2l-47.5 101.8c-2 4.3-.1 9.5 4.2 11.5l23.5 11c4.3 2 9.5.1 11.5-4.2l29.1-62.4 29.1 62.4c2 4.3 7.2 6.2 11.5 4.2l23.5-11c4-2 5.8-7.1 3.8-11.5m268.5-19.4l-45.4-26.2 45.4-26.2c4.1-2.4 5.5-7.7 3.2-11.8l-13-22.4c-2.4-4.1-7.7-5.5-11.8-3.2l-60.5 34.9V20.2c0-4.8-3.9-8.6-8.6-8.6h-25.9c-.6 0-1.2.1-1.7.2-1.4.3-2.7.9-3.8 1.8l-.6.6c-1 1-1.7 2.2-2.1 3.5-.3.8-.4 1.7-.4 2.6v112.3c0 4.2 3 7.7 6.9 8.5.6.1 1.1.2 1.7.2h25.9c2.1 0 4-.7 5.5-2 .4-.4.8-.7 1.2-1.2.2-.2.3-.4.5-.7.3-.5.6-1 .8-1.5.1-.3.2-.5.3-.8.3-.8.4-1.7.4-2.6V101l60.5 34.9c4.1 2.4 9.4 1 11.8-3.2l13-22.4c2.3-4.1.9-9.4-3.3-11.8M187.2 11.6h-25.9c-4.8 0-8.6 3.9-8.6 8.6v34.6h-43.2V20.2c0-4.8-3.9-8.6-8.6-8.6h-26c-4.8 0-8.6 3.9-8.6 8.6v112.3c0 4.8 3.9 8.6 8.6 8.6h25.9c4.8 0 8.6-3.9 8.6-8.6V98h43.2v34.6c0 4.8 3.9 8.6 8.6 8.6h25.9c4.8 0 8.6-3.9 8.6-8.6V20.2c.1-4.7-3.7-8.6-8.5-8.6"/><path class="st0" d="M6.7 54.7V11.4h6.6v43.3H6.7zm31.9 0h-5.1L19.3 11.4h6.8l10 31.5 10-31.5H53L38.6 54.7z"/><path class="st1" d="M621.8 227.2v-5.3h-4.9v-4.3h4.9v-5.2h4.5v5.2h5v4.3h-5v5.3h-4.5zm24.5 4.5l-7.5-23c-.1-.4-.4-.5-.9-.6l-1.7-.4.4-2.9h11.3v2.9l-3 .3 5.6 18.6h.3l5.4-18.6-3-.3.4-2.9h9.6v2.9l-1.6.4c-.4.1-.8.3-.9.7l-6.8 22.9h-7.6zm20 0v-2.9l2.7-.3c.5 0 .6-.2.6-.7v-19c0-.6-.1-.7-.6-.7l-2.7-.3v-3h12.5v3l-2.9.3c-.6.1-.6.1-.6.7v19c0 .6 0 .7.6.7l2.9.3v2.9h-12.5zm32.5 0l-3.3-9.3c-.4-1.3-.9-1.7-2.2-1.7h-1.7v7c0 .6 0 .7.6.7l2.6.3v3h-11.9v-3l2.3-.3c.5 0 .6-.2.6-.7v-19c0-.6-.1-.7-.6-.7l-2.3-.3v-2.9h12.7c6.7 0 8.7 3.6 8.7 7.4 0 3.8-2 5.9-4.9 7.1 1.1.5 1.6 1.4 2.2 3l2 5.3c.3.6.6.6 1.1.7l2.3.4v3h-8.2zm-5.6-14.8c2.7 0 5.1-.6 5.1-4.3 0-2.9-1.6-3.7-4.9-3.7h-1.9v8h1.7zm31.6 14.8v-2.9l3-.3-1.3-3.9h-9.2l-1.3 3.9 2.9.3v2.9h-10.4v-2.9l1.6-.4c.4-.1.8-.3.9-.7l8.1-22.9h6.6l8.1 23c.1.4.4.5.9.6l1.7.4v2.9h-11.6zm-2.7-21.2h-.2l-3.4 10.1h6.9l-3.3-10.1zm17.4 21.2v-3l2.3-.3c.5 0 .6-.2.6-.7v-19c0-.6-.1-.7-.6-.7l-2.3-.3v-2.9h12c9.3 0 13.3 5 13.3 13 0 8.2-4.3 13.9-14 13.9h-11.3zm10.8-4c6.5 0 8.7-3.9 8.7-9.5 0-6.8-2.6-9.4-8.5-9.4h-2.3v18.9h2.1zm31.9 4v-2.9l3-.3-1.3-3.9h-9.2l-1.3 3.9 2.9.3v2.9H766v-2.9l1.6-.4c.4-.1.8-.3.9-.7l8.1-22.9h6.6l8.1 23c.1.4.4.5.9.6l1.7.4v2.9h-11.7zm-2.7-21.2h-.2l-3.4 10.1h6.9l-3.3-10.1zm-165.6 65.1v-2.9l2.3-.3c.5-.1.6-.2.6-.7v-19c0-.6-.1-.7-.6-.7l-2.3-.3v-2.9h12.4v2.9l-3.1.3c-.6 0-.6.2-.6.7v19h6.6c.4 0 .5 0 .6-.4l.6-3.7h4.1v8.1h-20.6zm24.6 0v-2.9l2.3-.3c.5-.1.6-.2.6-.7v-19.1c0-.6-.1-.7-.6-.7l-2.3-.3v-2.9h19.8v7.5l-4.1-.2-.5-2.8c-.1-.4-.2-.5-.6-.5h-5.8v7.3h8.7v4.1h-8.7v7.5h6.7c.4 0 .5 0 .6-.4l.6-3.3h4.1v7.7h-20.8zm47.9-9.9c-.4 0-.6.1-.6.5v8c-2.8 1.3-6.5 1.8-9.6 1.8-10.1 0-13.6-6-13.6-14s4.6-13.9 13.9-13.9c2.7 0 6.1.7 8.4 2.2v7l-4.1-.3-.6-3.3c-.1-.5-.3-.7-.6-.7-.9-.3-2.3-.5-3.4-.5-4.8 0-7.7 3.6-7.7 9.5 0 6.1 2.6 9.8 7.9 9.8 1 0 2.2-.1 3.1-.3.4-.1.6-.2.6-.7V266H676l.5-3.3h11.4v3h-1.5zm4.7 9.9v-2.9l2.7-.3c.5 0 .6-.2.6-.7v-19c0-.6-.1-.7-.6-.7l-2.7-.3v-3h12.5v3l-2.9.3c-.6.1-.6.1-.6.7v19c0 .6 0 .7.6.7l2.9.3v2.9h-12.5zm30.7-19l-.4-3c-.1-.4-.2-.6-.4-.7-.6-.2-1.5-.4-2.7-.4-2.8 0-4.2 1.3-4.2 3.2 0 2.5 2.5 3.1 5.4 4 3.5 1.1 7.5 2.4 7.5 8 0 6.1-4.8 8.5-10.4 8.5-3.3 0-7.1-.9-8.5-1.5v-7.2h4.2l.7 3.5c.1.4.1.6.6.7.4.1 1.7.4 3.1.4 3 0 4.7-1.2 4.7-3.5 0-2.4-2.1-3.1-4.6-3.8-3.7-1-8.2-2-8.2-8 0-5.7 4.3-8.4 10-8.4 3.2 0 5.9.8 7.6 1.5v7.2l-4.4-.5zm9.4 19v-2.9l2.3-.3c.5-.1.6-.2.6-.7v-19c0-.6-.1-.7-.6-.7l-2.3-.3v-2.9h12.4v2.9l-3.1.3c-.6 0-.6.2-.6.7v19h6.6c.4 0 .5 0 .6-.4l.6-3.7h4.1v8.1h-20.6zm39.6 0v-2.9l3-.3-1.3-3.9h-9.2l-1.3 3.9 2.9.3v2.9h-10.4v-2.9l1.6-.4c.4-.1.8-.3.9-.7l8.1-22.9h6.6l8.1 23c.1.4.4.5.9.6l1.7.4v2.9h-11.6zm-2.7-21.2h-.2l-3.4 10.1h6.9l-3.3-10.1zm18.4 21.2v-2.9l3.8-.3c.5 0 .6-.2.6-.7v-18.9h-3.8c-.4 0-.5 0-.6.4l-.6 3.2h-4.1v-7.7h23.9v7.7h-4l-.6-3.2c-.1-.4-.2-.4-.6-.4h-3.8v18.9c0 .5 0 .7.6.7l4.1.3v2.9h-14.9zm23 0v-2.9l2.7-.3c.5 0 .6-.2.6-.7v-19c0-.6-.1-.7-.6-.7l-2.7-.3v-3H822v3l-2.9.3c-.6.1-.6.1-.6.7v19c0 .6 0 .7.6.7l2.9.3v2.9h-12.5zm25.4 0l-7.5-23c-.1-.4-.4-.5-.9-.6l-1.7-.4.4-2.9h11.3v2.9l-3 .3 5.6 18.6h.3l5.4-18.6-3-.3.4-2.9h9.6v2.9l-1.6.4c-.4.1-.8.3-.9.7l-6.8 22.9h-7.6zm31.2 0v-2.9l3-.3-1.3-3.9h-9.2l-1.3 3.9 2.9.3v2.9h-10.4v-2.9l1.6-.4c.4-.1.8-.3.9-.7l8.1-22.9h6.6l8.1 23c.1.4.4.5.9.6l1.7.4v2.9h-11.6zm-2.7-21.2h-.2l-3.4 10.1h6.9l-3.3-10.1z"/></svg>