<?xml version="1.0" encoding="iso-8859-1"?>
<!-- Generator: Adobe Illustrator 16.0.0, SVG Export Plug-In . SVG Version: 6.00 Build 0)  -->
<!DOCTYPE svg PUBLIC "-//W3C//DTD SVG 1.1//EN" "http://www.w3.org/Graphics/SVG/1.1/DTD/svg11.dtd">
<svg xmlns="http://www.w3.org/2000/svg" xmlns:xlink="http://www.w3.org/1999/xlink" version="1.1" id="Capa_1" x="0px" y="0px" width="512px" height="512px" viewBox="0 0 890.463 890.463" style="enable-background:new 0 0 890.463 890.463;" xml:space="preserve">
<g>
	<g>
		<path d="M823.912,354.146C823.912,158.568,665.344,0,469.762,0h-48.979C225.119,0,66.55,158.567,66.55,354.146    c0,4.078,0.51,8.148,0.681,12.14c-0.171,1.954-0.681,3.906-0.681,5.86v422.309c0,53.057,43.039,96.008,95.922,96.008    c48.727,0,88.453-36.162,94.904-83.02c6.281,46.857,46.008,83.02,94.565,83.02c47.025,0,85.902-33.701,94.223-78.18    c8.488,44.479,47.365,78.18,94.309,78.18c45.924,0,84.295-32.428,93.631-75.551c9.509,43.123,47.791,75.551,93.8,75.551    c53.055,0,96.01-42.951,96.01-96.008V372.146c0-1.954-0.512-3.906-0.599-5.86C823.4,362.293,823.912,358.224,823.912,354.146     M283.18,618.316c-80.303,0-145.41-65.111-145.41-145.496c0-80.308,65.107-145.497,145.41-145.497    c80.475,0,145.582,65.188,145.582,145.497C428.762,553.205,363.653,618.316,283.18,618.316 M607.279,618.316    c-80.39,0-145.496-65.111-145.496-145.496c0-80.308,65.106-145.497,145.496-145.497c80.301,0,145.494,65.188,145.494,145.497    C752.773,553.205,687.58,618.316,607.279,618.316" fill="#FFFFFF"/>
	</g>
</g>
<g>
</g>
<g>
</g>
<g>
</g>
<g>
</g>
<g>
</g>
<g>
</g>
<g>
</g>
<g>
</g>
<g>
</g>
<g>
</g>
<g>
</g>
<g>
</g>
<g>
</g>
<g>
</g>
<g>
</g>
</svg>
