<?xml version="1.0" encoding="iso-8859-1"?>
<!-- Generator: Adobe Illustrator 16.0.0, SVG Export Plug-In . SVG Version: 6.00 Build 0)  -->
<!DOCTYPE svg PUBLIC "-//W3C//DTD SVG 1.1//EN" "http://www.w3.org/Graphics/SVG/1.1/DTD/svg11.dtd">
<svg xmlns="http://www.w3.org/2000/svg" xmlns:xlink="http://www.w3.org/1999/xlink" version="1.1" id="Capa_1" x="0px" y="0px" width="512px" height="512px" viewBox="0 0 264.933 264.933" style="enable-background:new 0 0 264.933 264.933;" xml:space="preserve">
<g>
	<g>
		<path d="M258.667,125.938c5.881-7.736,7.733-16.61,5.088-24.344c-2.656-7.729-9.559-13.602-18.949-16.101L181.59,75.299    l-27.56-55.456l-0.42-0.729c-5.433-8.319-13.408-13.093-21.879-13.093c-8.144,0-15.728,4.259-21.363,11.98L77.761,75.291    l-57.087,9.586l-0.784,0.177c-9.318,2.665-16.153,8.66-18.748,16.463c-2.595,7.799-0.721,16.703,5.143,24.416l42.662,43.913    l-7.378,62.529l-0.042,0.569c-0.301,8.121,1.962,14.935,6.55,19.695c6.539,6.786,17.196,8.148,27.771,3.379l56.633-30.831    l56.151,30.589l0.481,0.242c4.261,1.918,8.461,2.894,12.479,2.894c5.96,0,11.393-2.23,15.289-6.272    c4.588-4.761,6.856-11.574,6.553-19.695l-7.43-63.099l42.087-43.248L258.667,125.938z M247.494,116.935l-46.53,47.805    l8.144,69.007c0.103,3.948-0.803,7.122-2.562,8.942c-2.292,2.381-6.507,2.469-11.313,0.359l-62.761-34.187l-62.753,34.191    c-4.798,2.104-9.019,2.025-11.318-0.354c-1.759-1.83-2.662-4.994-2.562-8.942l8.144-69.013l-46.524-47.804    c-2.81-3.843-3.775-7.694-2.709-10.893c1.064-3.202,4.156-5.715,8.725-7.096l63.391-10.653l35.323-62.156    c5.759-7.642,13.837-7.446,19.209,0.488l30.645,61.655l69.408,11.149c4.583,1.295,7.678,3.703,8.746,6.809    C251.247,109.336,250.29,113.122,247.494,116.935z" fill="#FFDA44"/>
		<path d="M131.788,91.958c-0.763,2.635-1.897,4.737-3.393,6.317c-2.179,2.31-5.008,3.848-8.482,4.618    c-2.179,0.488-5.997,0.85-11.446,1.095v11.78h20.708V176.5h17.734V88.438h-14.451C132.458,89.205,132.233,90.381,131.788,91.958z" fill="#FFDA44"/>
	</g>
</g>
<g>
</g>
<g>
</g>
<g>
</g>
<g>
</g>
<g>
</g>
<g>
</g>
<g>
</g>
<g>
</g>
<g>
</g>
<g>
</g>
<g>
</g>
<g>
</g>
<g>
</g>
<g>
</g>
<g>
</g>
</svg>
