<?xml version="1.0" encoding="iso-8859-1"?>
<!-- Generator: Adobe Illustrator 16.0.0, SVG Export Plug-In . SVG Version: 6.00 Build 0)  -->
<!DOCTYPE svg PUBLIC "-//W3C//DTD SVG 1.1//EN" "http://www.w3.org/Graphics/SVG/1.1/DTD/svg11.dtd">
<svg xmlns="http://www.w3.org/2000/svg" xmlns:xlink="http://www.w3.org/1999/xlink" version="1.1" id="Capa_1" x="0px" y="0px" width="512px" height="512px" viewBox="0 0 264.93 264.93" style="enable-background:new 0 0 264.93 264.93;" xml:space="preserve">
<g>
	<g>
		<path d="M48.948,169.844l-7.383,62.529l-0.047,0.569c-0.299,8.121,1.965,14.935,6.553,19.695    c6.539,6.786,17.203,8.148,27.773,3.379l56.631-30.831l56.154,30.589l0.48,0.242c4.261,1.918,8.462,2.894,12.479,2.894    c5.96,0,11.388-2.23,15.29-6.272c4.587-4.761,6.851-11.574,6.552-19.695l-7.425-63.099l42.088-43.248l0.573-0.665    c5.876-7.738,7.734-16.612,5.078-24.343c-2.646-7.729-9.554-13.603-18.943-16.102l-63.211-10.188l-27.563-55.456l-0.416-0.729    c-5.433-8.319-13.408-13.093-21.884-13.093c-8.144,0-15.728,4.259-21.361,11.98L77.762,75.289l-57.088,9.586l-0.784,0.177    c-9.32,2.66-16.153,8.66-18.748,16.458c-2.595,7.804-0.723,16.704,5.139,24.42L48.948,169.844z M14.743,106.045    c1.064-3.202,4.158-5.715,8.728-7.096l63.388-10.653l35.32-62.156c5.764-7.647,13.847-7.446,19.21,0.488l30.644,61.655    l69.404,11.149c4.583,1.295,7.682,3.703,8.746,6.809c1.064,3.094,0.107,6.879-2.688,10.692l-46.53,47.805l8.144,69.007    c0.099,3.948-0.803,7.122-2.562,8.942c-2.292,2.381-6.516,2.469-11.318,0.359L132.47,208.86l-62.758,34.191    c-4.802,2.104-9.017,2.025-11.318-0.354c-1.754-1.82-2.66-4.994-2.557-8.942l8.144-69.013L17.45,116.938    C14.64,113.095,13.683,109.244,14.743,106.045z" fill="#FFDA44"/>
		<path d="M122.818,140.759c-9.194,6.553-15.023,12.773-17.492,18.64c-2.553,5.228-3.911,10.996-4.07,17.311h60.308v-15.247h-38.443    c1.097-1.82,2.436-3.417,4.037-4.798c1.601-1.372,4.569-3.604,8.909-6.679l6.94-4.919c5.839-4.131,10.039-7.873,12.597-11.233    c3.893-5.062,5.843-10.849,5.843-17.369c0-8.501-2.758-15.336-8.27-20.498c-5.512-5.16-12.928-7.74-22.248-7.74    c-11.794,0-19.999,4.392-24.619,13.18c-2.436,4.616-3.79,10.667-4.074,18.16h16.825c0.201-4.94,0.85-8.541,1.946-10.809    c1.899-3.93,5.484-5.895,10.744-5.895c3.851,0,6.805,1.234,8.867,3.706c2.063,2.469,3.1,5.568,3.1,9.29    c0,4.574-1.802,8.783-5.409,12.631C135.956,130.958,130.794,135.046,122.818,140.759z" fill="#FFDA44"/>
	</g>
</g>
<g>
</g>
<g>
</g>
<g>
</g>
<g>
</g>
<g>
</g>
<g>
</g>
<g>
</g>
<g>
</g>
<g>
</g>
<g>
</g>
<g>
</g>
<g>
</g>
<g>
</g>
<g>
</g>
<g>
</g>
</svg>
